<mxfile host="app.diagrams.net" modified="2023-04-25T15:31:39.454Z" agent="Mozilla/5.0 (X11; Ubuntu; Linux x86_64; rv:109.0) Gecko/20100101 Firefox/112.0" version="21.2.1" etag="_DE2i4oXe0EzOyj1EGdQ" type="github">
  <diagram name="PÃ¡gina-1" id="bt1l83rn08jQCXgZRyvb">
    <mxGraphModel>
      <root>
        <mxCell id="0" />
        <mxCell id="1" parent="0" />
      </root>
    </mxGraphModel>
  </diagram>
</mxfile>
